<svg width="57" height="88" viewBox="0 0 57 88" fill="none" xmlns="http://www.w3.org/2000/svg">
<path d="M26.1136 87.7273V0.45454H31.7045V87.7273H26.1136ZM40.9432 29.2614C40.6705 26.5114 39.5 24.375 37.4318 22.8523C35.3636 21.3295 32.5568 20.5682 29.0114 20.5682C26.6023 20.5682 24.5682 20.9091 22.9091 21.5909C21.25 22.25 19.9773 23.1705 19.0909 24.3523C18.2273 25.5341 17.7955 26.875 17.7955 28.375C17.75 29.625 18.0114 30.7159 18.5795 31.6477C19.1705 32.5795 19.9773 33.3864 21 34.0682C22.0227 34.7273 23.2045 35.3068 24.5455 35.8068C25.8864 36.2841 27.3182 36.6932 28.8409 37.0341L35.1136 38.5341C38.1591 39.2159 40.9545 40.125 43.5 41.2614C46.0455 42.3977 48.25 43.7955 50.1136 45.4545C51.9773 47.1136 53.4205 49.0682 54.4432 51.3182C55.4886 53.5682 56.0227 56.1477 56.0455 59.0568C56.0227 63.3295 54.9318 67.0341 52.7727 70.1705C50.6364 73.2841 47.5455 75.7045 43.5 77.4318C39.4773 79.1364 34.625 79.9886 28.9432 79.9886C23.3068 79.9886 18.3977 79.125 14.2159 77.3977C10.0568 75.6705 6.80682 73.1136 4.46591 69.7273C2.14773 66.3182 0.931818 62.1023 0.818182 57.0795H15.1023C15.2614 59.4205 15.9318 61.375 17.1136 62.9432C18.3182 64.4886 19.9205 65.6591 21.9205 66.4545C23.9432 67.2273 26.2273 67.6136 28.7727 67.6136C31.2727 67.6136 33.4432 67.25 35.2841 66.5227C37.1477 65.7955 38.5909 64.7841 39.6136 63.4886C40.6364 62.1932 41.1477 60.7045 41.1477 59.0227C41.1477 57.4545 40.6818 56.1364 39.75 55.0682C38.8409 54 37.5 53.0909 35.7273 52.3409C33.9773 51.5909 31.8295 50.9091 29.2841 50.2955L21.6818 48.3864C15.7955 46.9545 11.1477 44.7159 7.73864 41.6705C4.32955 38.625 2.63636 34.5227 2.65909 29.3636C2.63636 25.1364 3.76136 21.4432 6.03409 18.2841C8.32955 15.125 11.4773 12.6591 15.4773 10.8864C19.4773 9.11363 24.0227 8.22727 29.1136 8.22727C34.2955 8.22727 38.8182 9.11363 42.6818 10.8864C46.5682 12.6591 49.5909 15.125 51.75 18.2841C53.9091 21.4432 55.0227 25.1023 55.0909 29.2614H40.9432Z" fill="#EAECD1"/>
</svg>
