<svg width="207" height="138" viewBox="0 0 207 138" fill="none" xmlns="http://www.w3.org/2000/svg">
<rect width="207" height="138" rx="3" fill="#EAECD1"/>
<path d="M15.5057 18V19.642H7.98864V18H15.5057ZM22.9901 18V19.642H15.473V18H22.9901ZM30.4744 18V19.642H22.9574V18H30.4744ZM37.9588 18V19.642H30.4418V18H37.9588ZM45.4432 18V19.642H37.9261V18H45.4432ZM71.5582 18.125C71.2135 18.125 70.9181 18.0038 70.6719 17.7614C70.4257 17.5189 70.3045 17.2235 70.3082 16.875C70.3045 16.5341 70.4257 16.2424 70.6719 16C70.9181 15.7576 71.2135 15.6364 71.5582 15.6364C71.8916 15.6364 72.1813 15.7576 72.4276 16C72.6776 16.2424 72.8045 16.5341 72.8082 16.875C72.8045 17.1061 72.7438 17.3163 72.6264 17.5057C72.5128 17.6951 72.3613 17.8466 72.1719 17.9602C71.9863 18.0701 71.7817 18.125 71.5582 18.125ZM76.1989 18.125C75.8542 18.125 75.5587 18.0038 75.3125 17.7614C75.0663 17.5189 74.9451 17.2235 74.9489 16.875C74.9451 16.5341 75.0663 16.2424 75.3125 16C75.5587 15.7576 75.8542 15.6364 76.1989 15.6364C76.5322 15.6364 76.822 15.7576 77.0682 16C77.3182 16.2424 77.4451 16.5341 77.4489 16.875C77.4451 17.1061 77.3845 17.3163 77.267 17.5057C77.1534 17.6951 77.0019 17.8466 76.8125 17.9602C76.6269 18.0701 76.4223 18.125 76.1989 18.125ZM80.8395 18.125C80.4948 18.125 80.1993 18.0038 79.9531 17.7614C79.7069 17.5189 79.5857 17.2235 79.5895 16.875C79.5857 16.5341 79.7069 16.2424 79.9531 16C80.1993 15.7576 80.4948 15.6364 80.8395 15.6364C81.1728 15.6364 81.4626 15.7576 81.7088 16C81.9588 16.2424 82.0857 16.5341 82.0895 16.875C82.0857 17.1061 82.0251 17.3163 81.9077 17.5057C81.794 17.6951 81.6425 17.8466 81.4531 17.9602C81.2675 18.0701 81.063 18.125 80.8395 18.125ZM128.777 18.125C128.432 18.125 128.137 18.0038 127.891 17.7614C127.644 17.5189 127.523 17.2235 127.527 16.875C127.523 16.5341 127.644 16.2424 127.891 16C128.137 15.7576 128.432 15.6364 128.777 15.6364C129.11 15.6364 129.4 15.7576 129.646 16C129.896 16.2424 130.023 16.5341 130.027 16.875C130.023 17.1061 129.963 17.3163 129.845 17.5057C129.732 17.6951 129.58 17.8466 129.391 17.9602C129.205 18.0701 129 18.125 128.777 18.125ZM133.418 18.125C133.073 18.125 132.777 18.0038 132.531 17.7614C132.285 17.5189 132.164 17.2235 132.168 16.875C132.164 16.5341 132.285 16.2424 132.531 16C132.777 15.7576 133.073 15.6364 133.418 15.6364C133.751 15.6364 134.041 15.7576 134.287 16C134.537 16.2424 134.664 16.5341 134.668 16.875C134.664 17.1061 134.603 17.3163 134.486 17.5057C134.372 17.6951 134.221 17.8466 134.031 17.9602C133.846 18.0701 133.641 18.125 133.418 18.125Z" fill="#494949"/>
<path d="M95.7614 37.125C95.4167 37.125 95.1212 37.0038 94.875 36.7614C94.6288 36.5189 94.5076 36.2235 94.5114 35.875C94.5076 35.5341 94.6288 35.2424 94.875 35C95.1212 34.7576 95.4167 34.6364 95.7614 34.6364C96.0947 34.6364 96.3845 34.7576 96.6307 35C96.8807 35.2424 97.0076 35.5341 97.0114 35.875C97.0076 36.1061 96.947 36.3163 96.8295 36.5057C96.7159 36.6951 96.5644 36.8466 96.375 36.9602C96.1894 37.0701 95.9848 37.125 95.7614 37.125ZM100.402 37.125C100.057 37.125 99.7618 37.0038 99.5156 36.7614C99.2694 36.5189 99.1482 36.2235 99.152 35.875C99.1482 35.5341 99.2694 35.2424 99.5156 35C99.7618 34.7576 100.057 34.6364 100.402 34.6364C100.735 34.6364 101.025 34.7576 101.271 35C101.521 35.2424 101.648 35.5341 101.652 35.875C101.648 36.1061 101.588 36.3163 101.47 36.5057C101.357 36.6951 101.205 36.8466 101.016 36.9602C100.83 37.0701 100.625 37.125 100.402 37.125ZM105.043 37.125C104.698 37.125 104.402 37.0038 104.156 36.7614C103.91 36.5189 103.789 36.2235 103.793 35.875C103.789 35.5341 103.91 35.2424 104.156 35C104.402 34.7576 104.698 34.6364 105.043 34.6364C105.376 34.6364 105.666 34.7576 105.912 35C106.162 35.2424 106.289 35.5341 106.293 35.875C106.289 36.1061 106.228 36.3163 106.111 36.5057C105.997 36.6951 105.846 36.8466 105.656 36.9602C105.471 37.0701 105.266 37.125 105.043 37.125ZM113.293 37.125C112.948 37.125 112.652 37.0038 112.406 36.7614C112.16 36.5189 112.039 36.2235 112.043 35.875C112.039 35.5341 112.16 35.2424 112.406 35C112.652 34.7576 112.948 34.6364 113.293 34.6364C113.626 34.6364 113.916 34.7576 114.162 35C114.412 35.2424 114.539 35.5341 114.543 35.875C114.539 36.1061 114.478 36.3163 114.361 36.5057C114.247 36.6951 114.096 36.8466 113.906 36.9602C113.721 37.0701 113.516 37.125 113.293 37.125Z" fill="#494949"/>
<path d="M143.131 123.636V87.2727H145.46V123.636H143.131ZM149.31 99.2756C149.196 98.1297 148.708 97.2396 147.847 96.6051C146.985 95.9706 145.815 95.6534 144.338 95.6534C143.334 95.6534 142.487 95.7955 141.795 96.0795C141.104 96.3542 140.574 96.7377 140.205 97.2301C139.845 97.7225 139.665 98.2812 139.665 98.9062C139.646 99.4271 139.755 99.8816 139.991 100.27C140.238 100.658 140.574 100.994 141 101.278C141.426 101.553 141.919 101.795 142.477 102.003C143.036 102.202 143.633 102.372 144.267 102.514L146.881 103.139C148.15 103.423 149.314 103.802 150.375 104.276C151.436 104.749 152.354 105.331 153.131 106.023C153.907 106.714 154.509 107.528 154.935 108.466C155.37 109.403 155.593 110.478 155.602 111.69C155.593 113.471 155.138 115.014 154.239 116.321C153.348 117.618 152.061 118.627 150.375 119.347C148.699 120.057 146.677 120.412 144.31 120.412C141.961 120.412 139.916 120.052 138.173 119.332C136.44 118.613 135.086 117.547 134.111 116.136C133.145 114.716 132.638 112.959 132.591 110.866H138.543C138.609 111.842 138.888 112.656 139.381 113.31C139.883 113.954 140.55 114.441 141.384 114.773C142.226 115.095 143.178 115.256 144.239 115.256C145.28 115.256 146.185 115.104 146.952 114.801C147.728 114.498 148.33 114.077 148.756 113.537C149.182 112.997 149.395 112.377 149.395 111.676C149.395 111.023 149.201 110.473 148.812 110.028C148.434 109.583 147.875 109.205 147.136 108.892C146.407 108.58 145.512 108.295 144.452 108.04L141.284 107.244C138.831 106.648 136.895 105.715 135.474 104.446C134.054 103.177 133.348 101.468 133.358 99.3182C133.348 97.5568 133.817 96.018 134.764 94.7017C135.721 93.3854 137.032 92.358 138.699 91.6193C140.366 90.8807 142.259 90.5114 144.381 90.5114C146.54 90.5114 148.424 90.8807 150.034 91.6193C151.653 92.358 152.913 93.3854 153.812 94.7017C154.712 96.018 155.176 97.5426 155.205 99.2756H149.31Z" fill="#494949"/>
<path d="M114.131 123.636V87.2727H116.46V123.636H114.131ZM120.31 99.2756C120.196 98.1297 119.708 97.2396 118.847 96.6051C117.985 95.9706 116.815 95.6534 115.338 95.6534C114.334 95.6534 113.487 95.7955 112.795 96.0795C112.104 96.3542 111.574 96.7377 111.205 97.2301C110.845 97.7225 110.665 98.2812 110.665 98.9062C110.646 99.4271 110.755 99.8816 110.991 100.27C111.238 100.658 111.574 100.994 112 101.278C112.426 101.553 112.919 101.795 113.477 102.003C114.036 102.202 114.633 102.372 115.267 102.514L117.881 103.139C119.15 103.423 120.314 103.802 121.375 104.276C122.436 104.749 123.354 105.331 124.131 106.023C124.907 106.714 125.509 107.528 125.935 108.466C126.37 109.403 126.593 110.478 126.602 111.69C126.593 113.471 126.138 115.014 125.239 116.321C124.348 117.618 123.061 118.627 121.375 119.347C119.699 120.057 117.677 120.412 115.31 120.412C112.961 120.412 110.916 120.052 109.173 119.332C107.44 118.613 106.086 117.547 105.111 116.136C104.145 114.716 103.638 112.959 103.591 110.866H109.543C109.609 111.842 109.888 112.656 110.381 113.31C110.883 113.954 111.55 114.441 112.384 114.773C113.226 115.095 114.178 115.256 115.239 115.256C116.28 115.256 117.185 115.104 117.952 114.801C118.728 114.498 119.33 114.077 119.756 113.537C120.182 112.997 120.395 112.377 120.395 111.676C120.395 111.023 120.201 110.473 119.812 110.028C119.434 109.583 118.875 109.205 118.136 108.892C117.407 108.58 116.512 108.295 115.452 108.04L112.284 107.244C109.831 106.648 107.895 105.715 106.474 104.446C105.054 103.177 104.348 101.468 104.358 99.3182C104.348 97.5568 104.817 96.018 105.764 94.7017C106.721 93.3854 108.032 92.358 109.699 91.6193C111.366 90.8807 113.259 90.5114 115.381 90.5114C117.54 90.5114 119.424 90.8807 121.034 91.6193C122.653 92.358 123.913 93.3854 124.812 94.7017C125.712 96.018 126.176 97.5426 126.205 99.2756H120.31Z" fill="#494949"/>
<path d="M172.131 123.636V87.2727H174.46V123.636H172.131ZM178.31 99.2756C178.196 98.1297 177.708 97.2396 176.847 96.6051C175.985 95.9706 174.815 95.6534 173.338 95.6534C172.334 95.6534 171.487 95.7955 170.795 96.0795C170.104 96.3542 169.574 96.7377 169.205 97.2301C168.845 97.7225 168.665 98.2812 168.665 98.9062C168.646 99.4271 168.755 99.8816 168.991 100.27C169.238 100.658 169.574 100.994 170 101.278C170.426 101.553 170.919 101.795 171.477 102.003C172.036 102.202 172.633 102.372 173.267 102.514L175.881 103.139C177.15 103.423 178.314 103.802 179.375 104.276C180.436 104.749 181.354 105.331 182.131 106.023C182.907 106.714 183.509 107.528 183.935 108.466C184.37 109.403 184.593 110.478 184.602 111.69C184.593 113.471 184.138 115.014 183.239 116.321C182.348 117.618 181.061 118.627 179.375 119.347C177.699 120.057 175.677 120.412 173.31 120.412C170.961 120.412 168.916 120.052 167.173 119.332C165.44 118.613 164.086 117.547 163.111 116.136C162.145 114.716 161.638 112.959 161.591 110.866H167.543C167.609 111.842 167.888 112.656 168.381 113.31C168.883 113.954 169.55 114.441 170.384 114.773C171.226 115.095 172.178 115.256 173.239 115.256C174.28 115.256 175.185 115.104 175.952 114.801C176.728 114.498 177.33 114.077 177.756 113.537C178.182 112.997 178.395 112.377 178.395 111.676C178.395 111.023 178.201 110.473 177.812 110.028C177.434 109.583 176.875 109.205 176.136 108.892C175.407 108.58 174.512 108.295 173.452 108.04L170.284 107.244C167.831 106.648 165.895 105.715 164.474 104.446C163.054 103.177 162.348 101.468 162.358 99.3182C162.348 97.5568 162.817 96.018 163.764 94.7017C164.721 93.3854 166.032 92.358 167.699 91.6193C169.366 90.8807 171.259 90.5114 173.381 90.5114C175.54 90.5114 177.424 90.8807 179.034 91.6193C180.653 92.358 181.913 93.3854 182.812 94.7017C183.712 96.018 184.176 97.5426 184.205 99.2756H178.31Z" fill="#494949"/>
</svg>
